<?xml version="1.0" encoding="utf-8"?>
<!-- Generator: Adobe Illustrator 16.0.0, SVG Export Plug-In . SVG Version: 6.00 Build 0)  -->
<!DOCTYPE svg PUBLIC "-//W3C//DTD SVG 1.1//EN" "http://www.w3.org/Graphics/SVG/1.1/DTD/svg11.dtd">
<svg version="1.1" id="Layer_1" xmlns="http://www.w3.org/2000/svg" xmlns:xlink="http://www.w3.org/1999/xlink" x="0px" y="0px"
	 width="692.007px" height="500.992px" viewBox="0 0 692.007 500.992" enable-background="new 0 0 692.007 500.992"
	 xml:space="preserve">
<g>
	<path d="M-2699.183,171.561V62.723h26.804v61.688l43.547-30.616h22.442l-40.874,27.766l46.08,50h-29.407l-34.542-37.115
		l-7.246,5.359v31.756H-2699.183z"/>
	<path d="M-2539.454,171.561v-8.153c-0.75,1.407-3.271,3.156-7.562,5.245c-4.292,2.091-11.573,3.136-21.844,3.136
		c-8.771-0.266-16.064-2.09-21.879-5.474c-5.816-3.383-8.793-8.723-8.935-16.021c0-7.83,3.458-13.702,10.377-17.617
		c6.917-3.914,17.294-6.29,31.13-7.126c6.378-0.418,11.291-1.739,14.738-3.962c3.447-2.224,5.171-4.722,5.171-7.498
		c0-2.812-1.583-5.225-4.749-7.24c-3.166-2.014-7.446-3.022-12.838-3.022c-11.116,0-19.758,1.663-25.925,4.989
		c-6.167,3.326-10.213,6.11-12.135,8.353l-0.082-12.784c0-0.265,5.557-3.75,8.489-5.119c2.931-1.368,7.023-2.651,12.276-3.848
		c5.252-1.197,11.513-1.815,18.784-1.853c14.82,0,25.537,2.043,32.15,6.129c6.613,4.086,9.919,9.436,9.919,16.049v55.816H-2539.454z
		 M-2552.68,159.417c8.817-1.938,13.226-5.055,13.226-9.35v-17.731c-0.047,0.114-0.375,0.656-0.984,1.625
		c-0.61,0.969-1.994,1.93-4.151,2.879c-2.158,0.951-5.441,1.635-9.849,2.053c-7.504,0.836-13.226,2.195-17.166,4.076
		c-3.94,1.881-5.91,5.103-5.91,9.664c0.609,5.284,5.815,7.925,15.618,7.925C-2558.941,160.557-2555.87,160.178-2552.68,159.417z"/>
	<path d="M-2475.684,112.723c0,3.003,3.294,5.255,9.884,6.756c6.588,1.502,13.354,2.908,20.296,4.219
		c6.94,1.311,12.955,3.516,18.045,6.613c5.088,3.099,7.75,7.896,7.984,14.396c0,9.502-3.155,16.326-9.462,20.468
		c-6.309,4.143-15.467,6.575-27.472,7.297c-1.502,0.151-3.799,0.228-6.895,0.228c-8.161,0-15.196-0.522-21.105-1.567
		c-5.91-1.045-13.788-4.174-16.085-4.858l0.045-11.305c2.11,1.179,5.98,2.661,11.608,4.447c5.627,1.787,12.405,2.718,20.332,2.793
		c8.441,0,14.176-1.035,17.201-3.107c3.024-2.071,4.607-5.311,4.748-9.721c0-5.093-2.123-8.457-6.367-10.091
		c-4.245-1.634-11.115-3.211-20.613-4.732c-9.497-1.52-16.65-3.706-21.457-6.556c-4.808-2.851-7.211-7.868-7.211-15.052
		c0.704-12.504,12.897-19.194,36.582-20.069c0.798,0,1.9-0.037,3.307-0.114c1.407-0.076,2.415-0.114,3.025-0.114
		c8.582,0,15.5,0.494,20.754,1.482c5.251,0.989,13.345,3.315,15.221,3.961l0.045,11.09c-1.829-0.95-5.416-2.118-10.763-3.506
		c-5.348-1.387-12.594-2.081-21.74-2.081c-6.189,0-11.021,0.58-14.491,1.739C-2473.738,106.5-2475.543,108.96-2475.684,112.723z"/>
	<g>
		<path d="M-2393.854,62.495c4.784,0,8.524,1.217,11.222,3.649c2.696,2.433,4.045,5.34,4.045,8.723c0,3.459-1.371,6.423-4.115,8.894
			c-2.744,2.472-6.555,3.706-11.433,3.706c-4.689,0-8.419-1.245-11.185-3.734c-2.769-2.489-4.151-5.368-4.151-8.637
			c0-3.344,1.383-6.28,4.151-8.809C-2402.554,63.759-2398.731,62.495-2393.854,62.495z M-2407.43,204.703V93.795h26.803v110.908
			H-2407.43z"/>
	</g>
	<path fill="none" d="M-2423.717,233.095c-5.02,0.305-8.672,1.008-11.406,2.109c-2.732,1.104-3.877,1.882-3.877,2.338v47.149
		c0,0.495,1.244,1.587,4.18,3.278c2.936,1.692,6.309,2.708,10.34,3.05c8.647,0,14.698-2.517,18.262-7.553
		c3.562-5.036,5.316-12.8,5.316-23.291c0-8.742-1.551-15.44-4.619-20.097C-2408.591,235.424-2414.666,233.095-2423.717,233.095z"/>
	<path fill="none" d="M-2328.16,232.909c-12.501,0.343-18.753,8.091-18.753,23.091h39.926
		C-2306.987,240-2314.045,232.909-2328.16,232.909z"/>
	<polygon points="-2558.557,256.513 -2594.045,193 -2624.359,193 -2624.221,193 -2699,193 -2699,212 -2613.367,212 
		-2563.53,302.542 -2512.045,193 -2530.193,193 	"/>
	<g>
		<path d="M-2490.491,192.217c-4.661,0-8.312,1.265-10.956,3.792c-2.645,2.528-3.966,5.465-3.966,8.809
			c0,3.269,1.321,6.148,3.966,8.638c2.644,2.49,6.206,3.734,10.687,3.734c4.66,0,8.301-1.234,10.922-3.706
			c2.622-2.471,3.932-5.435,3.932-8.894c0-3.383-1.289-6.29-3.864-8.723C-2482.347,193.435-2485.92,192.217-2490.491,192.217z"/>
		<rect x="-2503" y="224" width="25" height="77"/>
	</g>
	<path d="M-2398.478,225.57c-5.042-1.672-10.589-2.508-17.085-2.508c-9.59,0-17.438,1.311-23.438,3.934V193h-26v108h26v-4.392
		c1,0.837,2.926,1.901,6.264,3.192c3.338,1.293,7.942,1.938,14.038,1.938c6.944-0.077,13.174-1.14,18.797-3.193
		c5.623-2.052,10.246-6.119,13.921-12.2c3.674-6.081,5.495-14.729,5.495-25.941c0-10.414-1.743-18.406-5.215-23.974
		C-2389.173,230.863-2393.438,227.243-2398.478,225.57z M-2406.274,283.467c-3.563,5.036-9.669,7.553-18.316,7.553
		c-4.032-0.342-7.294-1.357-10.229-3.05c-2.936-1.691-4.18-2.783-4.18-3.278v-47.149c0-0.457,1.145-1.235,3.877-2.338
		c2.734-1.101,6.497-1.804,11.517-2.109c9.052,0,15.057,2.329,18.126,6.984c3.069,4.657,4.578,11.355,4.578,20.097
		C-2400.902,270.667-2402.713,278.432-2406.274,283.467z"/>
	<path d="M-2297.376,234.008c-5.825-7.297-16.915-10.946-33.271-10.946c-13.621,0.114-23.961,3.517-31.019,10.205
		c-7.057,6.69-10.586,17.218-10.586,31.585c0.134,12.543,3.305,21.657,9.511,27.338c6.206,5.683,15.986,8.942,29.339,9.778
		c1.837,0.151,4.392,0.228,7.662,0.228c8.244,0,15.032-0.655,20.366-1.967c5.332-1.311,11.018-4.63,11.018-5.428l0.879-11.248
		c-1.613,1.368-5.086,3.069-10.418,5.102c-5.334,2.034-12.703,3.05-22.114,3.05c-7.707-0.304-13.017-3.729-15.93-10.001
		c-2.913-6.271-4.569-11.703-4.974-15.703h56.46c0.09,0,0.202-1.334,0.336-2.683c0.135-1.349,0.202-2.925,0.202-4.862
		C-2289.915,248.155-2292.401,240.052-2297.376,234.008z M-2346.913,256c0-15,6.252-22.748,18.753-23.091
		c14.115,0,21.173,7.091,21.173,23.091H-2346.913z"/>
</g>
<g>
	<path d="M-2801.9,570.003v-114.19h28.122v64.722l45.689-32.122h23.546l-42.884,29.132l48.345,52.459h-30.852l-36.241-38.941
		l-7.603,5.623v33.318H-2801.9z"/>
	<path d="M-2634.317,570.003v-8.555c-0.788,1.477-3.432,3.312-7.935,5.503c-4.502,2.194-12.142,3.29-22.918,3.29
		c-9.203-0.278-16.854-2.192-22.956-5.741c-6.102-3.55-9.226-9.153-9.374-16.81c0-8.214,3.628-14.376,10.888-18.483
		c7.257-4.106,18.145-6.6,32.661-7.477c6.691-0.438,11.846-1.825,15.463-4.157c3.616-2.333,5.425-4.954,5.425-7.866
		c0-2.95-1.66-5.482-4.982-7.597c-3.321-2.113-7.812-3.17-13.47-3.17c-11.663,0-20.729,1.745-27.199,5.234
		c-6.471,3.489-10.715,6.41-12.733,8.763l-0.086-13.412c0-0.278,5.831-3.935,8.906-5.37c3.075-1.437,7.369-2.782,12.88-4.038
		c5.511-1.256,12.079-1.904,19.708-1.944c15.548,0,26.793,2.145,33.731,6.431c6.938,4.287,10.407,9.899,10.407,16.839v58.561
		H-2634.317z M-2648.193,557.262c9.25-2.034,13.876-5.304,13.876-9.811v-18.604c-0.05,0.12-0.395,0.688-1.033,1.705
		c-0.641,1.018-2.093,2.025-4.355,3.021c-2.264,0.997-5.708,1.715-10.333,2.153c-7.874,0.877-13.876,2.303-18.009,4.276
		c-4.134,1.975-6.201,5.354-6.201,10.139c0.639,5.544,6.101,8.315,16.386,8.315C-2654.762,558.458-2651.541,558.06-2648.193,557.262
		z"/>
	<path d="M-2567.411,508.271c0,3.15,3.456,5.514,10.37,7.088c6.912,1.576,14.011,3.051,21.294,4.427
		c7.281,1.376,13.592,3.688,18.932,6.938c5.338,3.251,8.131,8.285,8.377,15.104c0,9.97-3.31,17.128-9.927,21.474
		c-6.619,4.348-16.227,6.898-28.823,7.656c-1.576,0.159-3.985,0.239-7.233,0.239c-8.563,0-15.943-0.548-22.144-1.644
		c-6.2-1.097-14.466-4.381-16.876-5.099l0.047-11.86c2.215,1.236,6.275,2.791,12.179,4.666c5.904,1.874,13.015,2.852,21.332,2.931
		c8.857,0,14.873-1.086,18.047-3.261c3.174-2.173,4.834-5.571,4.982-10.198c0-5.344-2.228-8.872-6.68-10.587
		c-4.455-1.715-11.662-3.37-21.626-4.965c-9.964-1.595-17.469-3.888-22.512-6.879c-5.045-2.991-7.566-8.255-7.566-15.791
		c0.738-13.121,13.531-20.139,38.381-21.057c0.837,0,1.993-0.038,3.469-0.119c1.476-0.079,2.533-0.12,3.173-0.12
		c9.005,0,16.263,0.52,21.774,1.556c5.51,1.038,14.002,3.479,15.97,4.156l0.046,11.635c-1.919-0.996-5.683-2.223-11.292-3.678
		c-5.61-1.455-13.213-2.184-22.809-2.184c-6.494,0-11.563,0.608-15.204,1.824C-2565.37,501.742-2567.264,504.323-2567.411,508.271z"
		/>
	<g>
		<path d="M-2495.801,570.003V487.04h28.121v82.963H-2495.801z"/>
	</g>
	<path fill="none" d="M-2259.486,497.567c-5.267,0.32-9.339,1.058-12.206,2.213c-2.868,1.158-4.308,1.975-4.308,2.453v49.468
		c0,0.52,1.545,1.666,4.624,3.439c3.08,1.775,6.739,2.842,10.97,3.2c9.072,0,15.479-2.641,19.218-7.925
		c3.736-5.283,5.608-13.43,5.608-24.436c0-9.172-1.611-16.199-4.832-21.085C-2243.632,500.011-2249.99,497.567-2259.486,497.567z"/>
	<path fill="none" d="M-2159.231,497.773c-13.115,0.36-19.675,8.227-19.675,24.227h41.89
		C-2137.017,505-2144.422,497.773-2159.231,497.773z"/>
	<polygon points="-2400.957,521.636 -2438.191,455 -2469.996,455 -2469.85,455 -2549,455 -2549,476 -2458.463,476 
		-2406.176,570.461 -2352.158,455 -2371.199,455 	"/>
	<path d="M-2329.544,454.679c-4.89,0-8.721,1.327-11.495,3.978c-2.773,2.652-4.16,5.733-4.16,9.242c0,3.43,1.387,6.451,4.16,9.063
		c2.774,2.612,6.511,3.917,11.213,3.917c4.889,0,8.709-1.295,11.459-3.888c2.751-2.592,4.126-5.703,4.126-9.331
		c0-3.549-1.352-6.6-4.055-9.152C-2321,455.956-2324.748,454.679-2329.544,454.679z"/>
	<rect x="-2343" y="488" width="27" height="81"/>
	<path d="M-2233.006,489.672c-5.29-1.754-11.35-2.632-18.166-2.632c-10.061,0-17.828,1.376-24.828,4.127V455h-27v114h27v-4.797
		c1,0.878,3.308,1.995,6.812,3.35c3.501,1.356,8.452,2.034,14.847,2.034c7.287-0.081,13.882-1.196,19.782-3.351
		c5.899-2.152,10.778-6.419,14.634-12.8c3.854-6.38,5.782-15.452,5.782-27.216c0-10.927-1.821-19.312-5.464-25.153
		C-2223.252,495.226-2227.719,491.427-2233.006,489.672z M-2241.187,550.416c-3.738,5.284-10.145,7.925-19.217,7.925
		c-4.231-0.358-7.893-1.425-10.973-3.2c-3.079-1.773-4.624-2.92-4.624-3.439v-49.468c0-0.479,1.439-1.295,4.308-2.453
		c2.867-1.155,6.937-1.893,12.202-2.213c9.496,0,15.856,2.443,19.076,7.328c3.221,4.886,4.834,11.913,4.834,21.085
		C-2235.58,536.986-2237.449,545.133-2241.187,550.416z"/>
	<path d="M-2126.933,498.524c-6.112-7.655-17.748-11.484-34.908-11.484c-14.291,0.12-25.139,3.689-32.544,10.706
		c-7.404,7.02-11.106,18.065-11.106,33.139c0.141,13.16,3.468,22.722,9.979,28.683c6.512,5.962,16.772,9.382,30.781,10.259
		c1.928,0.159,4.607,0.239,8.04,0.239c8.648,0,15.771-0.688,21.366-2.064c5.595-1.375,11.56-4.857,11.56-5.694l0.922-11.801
		c-1.691,1.436-5.336,3.22-10.93,5.353c-5.596,2.135-13.327,3.2-23.201,3.2c-8.086-0.318-13.657-3.958-16.713-10.538
		c-3.057-6.58-4.795-11.521-5.219-16.521h59.236c0.095,0,0.212-1.354,0.353-2.77c0.142-1.416,0.212-3.047,0.212-5.079
		C-2119.105,513.345-2121.715,504.866-2126.933,498.524z M-2178.906,522c0-16,6.56-23.866,19.675-24.227
		c14.81,0,22.215,7.227,22.215,24.227H-2178.906z"/>
</g>
<g>
	<text transform="matrix(1.2339 0 0 1 -2672.5049 -383.0005)" font-family="'LilyUPC'" font-size="309.4009">kasi</text>
	<text transform="matrix(1.1789 0 0 1 -2547.4897 -211.1294)" font-family="'LilyUPC'" font-size="309.4009">Vibe</text>
	<rect x="-2664" y="-356" width="147" height="26"/>
</g>
<path d="M-2765.714,770.724c-13.249,0-25.286,3.75-36.286,10.241v25.98l24.121-16.945h12.258l-22.325,15.428l25.168,27.572h-16.062
	l-19.034-20.424l-4.125,2.777V833h-14v-39.906c-12,12.232-18.171,28.521-18.171,46.406c0,37.984,30.716,68.776,68.7,68.776
	c8.187,0,16.001-1.413,23.283-4.038L-2769.433,855H-2816v-11h40.563h0.076h16.481l19.383,34.689l15.492-34.689h9.912l-28.105,60.088
	c26.49-9.563,45.342-34.862,45.342-64.648C-2696.854,801.455-2727.731,770.724-2765.714,770.724z"/>
<path fill="#D80000" d="M-2575.714,770.724c-13.249,0-25.286,3.75-36.286,10.241v25.98l24.121-16.945h12.258l-22.325,15.428
	l25.168,27.572h-16.062l-19.034-20.424l-4.125,2.777V833h-14v-39.906c-12,12.232-18.171,28.521-18.171,46.406
	c0,37.984,30.716,68.776,68.7,68.776c8.187,0,16.001-1.413,23.283-4.038L-2579.433,855H-2626v-11h40.563h0.076h16.481l19.383,34.689
	l15.492-34.689h9.912l-28.105,60.088c26.49-9.563,45.342-34.862,45.342-64.648C-2506.854,801.455-2537.731,770.724-2575.714,770.724
	z"/>
<path fill="#D10000" d="M-2379.715,770.724c-13.248,0-25.285,3.75-36.285,10.241v25.98l24.121-16.945h12.258l-22.326,15.428
	l25.168,27.572h-16.061l-19.035-20.424l-4.125,2.777V833h-14v-39.906c-12,12.232-18.171,28.521-18.171,46.406
	c0,37.984,30.716,68.776,68.7,68.776c8.188,0,16.001-1.413,23.283-4.038L-2383.434,855H-2430v-11h40.563h0.075h16.482l19.383,34.689
	l15.492-34.689h9.912l-28.105,60.088c26.49-9.563,45.343-34.862,45.343-64.648C-2310.854,801.455-2341.73,770.724-2379.715,770.724z
	"/>
<path fill="#B70000" d="M-2181.715,770.724c-13.248,0-25.285,3.75-36.285,10.241v25.98l24.121-16.945h12.258l-22.326,15.428
	l25.168,27.572h-16.061l-19.035-20.424l-4.125,2.777V833h-14v-39.906c-12,12.232-18.171,28.521-18.171,46.406
	c0,37.984,30.716,68.776,68.7,68.776c8.188,0,16.001-1.413,23.283-4.038L-2185.434,855H-2232v-11h40.563h0.075h16.482l19.383,34.689
	l15.492-34.689h9.912l-28.105,60.088c26.49-9.563,45.343-34.862,45.343-64.648C-2112.854,801.455-2143.73,770.724-2181.715,770.724z
	"/>
<g>
	<text transform="matrix(1 0 0 1 -1304.0156 -455.6636)" font-family="'Teko-Semibold'" font-size="184.3125">kasi</text>
	<text transform="matrix(1 0 0 1 -1240.0156 -310.3374)" font-family="'Teko-Semibold'" font-size="184.3125">Vibe</text>
</g>
<line fill="#FF0000" x1="-1768.441" y1="290.609" x2="-1631.465" y2="624.275"/>
<g>
	<g>
		<path d="M-1792.274,342.341V219.036h25.619v123.305H-1792.274z M-1720.393,251.106l-20.09,44.419l20.09,46.815h-26.91
			l-19.168-46.815l19.353-44.419H-1720.393z"/>
		<path d="M-1673.763,251.106h25.251v91.234h-25.62v-9.031c-1.843,6.021-6.698,9.031-14.561,9.031h-4.424
			c-14.376,0-21.564-6.819-21.564-20.459v-50.317c0-13.639,7.188-20.458,21.564-20.458h4.424c8.23,0,13.207,3.441,14.93,10.321
			V251.106z M-1683.9,322.988h4.239c3.687,0,5.529-1.964,5.529-5.898v-40.732c0-3.932-1.843-5.898-5.529-5.898h-4.239
			c-3.317,0-4.977,1.538-4.977,4.607v43.313C-1688.877,321.453-1687.218,322.988-1683.9,322.988z"/>
		<path d="M-1597.091,320.407v-10.321c0-1.596-0.368-2.732-1.105-3.409c-0.737-0.674-2.027-1.014-3.87-1.014h-10.506
			c-15.361,0-23.039-6.757-23.039-20.274v-13.824c0-13.639,7.801-20.458,23.407-20.458h15.667c15.603,0,23.407,6.819,23.407,20.458
			v8.11h-24.698v-6.636c0-1.595-0.368-2.732-1.105-3.409c-0.737-0.674-2.027-1.014-3.87-1.014h-2.765
			c-1.844,0-3.134,0.34-3.871,1.014c-0.737,0.677-1.105,1.814-1.105,3.409v11.059c0,1.599,0.368,2.736,1.105,3.41
			c0.737,0.677,2.027,1.014,3.871,1.014h10.506c15.358,0,23.039,6.698,23.039,20.09v13.271c0,13.64-7.805,20.459-23.408,20.459
			h-16.403c-15.482,0-23.224-6.819-23.224-20.459v-7.925h25.066v6.45c0,3.073,1.596,4.608,4.792,4.608h3.134
			C-1598.749,325.016-1597.091,323.48-1597.091,320.407z"/>
		<path d="M-1561.678,238.941v-19.905h26.725v19.905H-1561.678z M-1535.506,342.341h-25.619v-91.234h25.619V342.341z"/>
	</g>
	<g>
		<path d="M-1667.885,359h23.849l-13.287,123.667h-32.255L-1740.174,359h27.463l36.118,86.163L-1667.885,359z"/>
		<path d="M-1628.042,379.268v-19.905h26.725v19.905H-1628.042z M-1601.87,482.667h-25.619v-91.234h25.619V482.667z"/>
		<path d="M-1546.393,391.433h4.607c14.376,0,21.564,6.759,21.564,20.274v50.501c0,13.64-7.188,20.459-21.564,20.459h-4.607
			c-8.11,0-13.026-3.438-14.745-10.321v10.321h-25.251V359.362h25.619v41.102C-1558.926,394.444-1554.134,391.433-1546.393,391.433z
			 M-1546.024,458.706v-43.313c0-1.719-0.368-2.917-1.105-3.594c-0.737-0.674-2.027-1.014-3.871-1.014h-4.423
			c-3.565,0-5.346,1.967-5.346,5.898v40.732c0,3.935,1.78,5.898,5.346,5.898h4.423
			C-1547.684,463.314-1546.024,461.779-1546.024,458.706z"/>
		<path d="M-1484.467,391.433h20.828c15.603,0,23.407,6.819,23.407,20.458v32.255h-42.944v15.667c0,1.598,0.368,2.735,1.105,3.409
			c0.737,0.677,2.027,1.014,3.871,1.014h8.294c1.719,0,2.948-0.368,3.686-1.105s1.106-1.964,1.106-3.687v-6.082h24.697v8.847
			c0,13.64-7.804,20.459-23.407,20.459h-20.644c-15.481,0-23.223-6.819-23.223-20.459v-50.317
			C-1507.689,398.252-1499.948,391.433-1484.467,391.433z M-1483.176,429.032h18.247v-14.745c0-1.596-0.369-2.733-1.106-3.41
			c-0.737-0.674-1.967-1.014-3.687-1.014h-8.478c-1.844,0-3.134,0.34-3.871,1.014c-0.737,0.677-1.105,1.814-1.105,3.41V429.032z"/>
	</g>
	<rect x="-1796.74" y="359" width="81.559" height="25.619"/>
</g>
<g>
	<path fill="#FFFFFF" d="M0,234.323V0h48.686v234.323H0z M136.601,60.945l-38.178,84.412l38.178,88.966H85.462l-36.426-88.966
		l36.777-84.412H136.601z"/>
	<path fill="#FFFFFF" d="M240.214,60.945H288.2v173.378h-48.688V217.16c-3.502,11.443-12.729,17.163-27.67,17.163h-8.406
		c-27.32,0-40.98-12.959-40.98-38.879V99.822c0-25.918,13.66-38.877,40.98-38.877h8.406c15.641,0,25.098,6.54,28.371,19.614V60.945z
		 M220.949,197.546h8.056c7.006,0,10.508-3.732,10.508-11.209v-77.406c0-7.471-3.502-11.209-10.508-11.209h-8.056
		c-6.304,0-9.457,2.923-9.457,8.756v82.311C211.492,194.628,214.646,197.546,220.949,197.546z"/>
	<path fill="#FFFFFF" d="M398.919,192.641v-19.614c0-3.032-0.7-5.192-2.102-6.479c-1.4-1.281-3.853-1.926-7.354-1.926h-19.965
		c-29.192,0-43.782-12.84-43.782-38.529V99.822c0-25.918,14.824-38.877,44.482-38.877h29.772c29.65,0,44.481,12.959,44.481,38.877
		v15.413h-46.936v-12.61c0-3.03-0.699-5.192-2.1-6.479c-1.402-1.28-3.854-1.926-7.355-1.926h-5.254
		c-3.504,0-5.955,0.646-7.355,1.926c-1.402,1.286-2.102,3.448-2.102,6.479v21.016c0,3.038,0.699,5.2,2.102,6.48
		c1.4,1.286,3.852,1.926,7.355,1.926h19.965c29.187,0,43.783,12.729,43.783,38.178v25.219c0,25.92-14.832,38.879-44.484,38.879
		h-31.172c-29.422,0-44.133-12.959-44.133-38.879v-15.06h47.635v12.258c0,5.84,3.032,8.757,9.105,8.757h5.956
		C395.767,201.398,398.919,198.481,398.919,192.641z"/>
	<path fill="#FFFFFF" d="M482.216,37.827V0h50.786v37.827H482.216z M531.952,298h-48.686V60.945h48.686V298z"/>
	<path fill="#FFFFFF" d="M317.101,304.497v-37.827h50.785v37.827H317.101z M366.836,500.992H318.15V327.614h48.686V500.992z"/>
	<path fill="#FFFFFF" d="M480.263,327.614h8.756c27.319,0,40.98,12.844,40.98,38.529v95.97c0,25.92-13.661,38.879-40.98,38.879
		h-8.756c-15.412,0-24.754-6.534-28.021-19.614v19.614h-47.985V266.669h48.685v78.107
		C456.445,333.338,465.552,327.614,480.263,327.614z M480.962,455.458v-82.311c0-3.266-0.699-5.543-2.1-6.83
		c-1.402-1.28-3.854-1.926-7.357-1.926h-8.404c-6.775,0-10.159,3.738-10.159,11.209v77.406c0,7.477,3.384,11.209,10.159,11.209
		h8.404C477.81,464.215,480.962,461.298,480.962,455.458z"/>
	<path fill="#FFFFFF" d="M607.944,327.614h39.58c29.65,0,44.482,12.959,44.482,38.878v61.295h-81.609v29.773
		c0,3.036,0.699,5.198,2.101,6.479c1.401,1.286,3.853,1.926,7.356,1.926h15.762c3.266,0,5.603-0.7,7.004-2.101
		c1.4-1.401,2.102-3.732,2.102-7.006v-11.558h46.934v16.812c0,25.92-14.829,38.879-44.481,38.879h-39.229
		c-29.421,0-44.132-12.959-44.132-38.879v-95.621C563.813,340.574,578.523,327.614,607.944,327.614z M610.397,399.067h34.676
		v-28.021c0-3.032-0.701-5.194-2.103-6.48c-1.401-1.28-3.737-1.926-7.006-1.926h-16.11c-3.504,0-5.955,0.646-7.356,1.926
		c-1.401,1.286-2.101,3.448-2.101,6.48V399.067z"/>
	<g>
		<path fill="#FFFFFF" d="M236.385,265.981h45.321l-25.251,235.011h-61.296L99.01,265.981h52.189l68.638,163.74L236.385,265.981z"/>
		<rect y="265.981" fill="#FFFFFF" width="146.504" height="48.686"/>
	</g>
</g>
<g>
	<circle cx="-801" cy="187" r="152"/>
	<g>
		<path fill="#FFFFFF" d="M-879.645,180.689V24.008h32.555v156.682H-879.645z M-788.306,64.759l-25.528,56.443l25.528,59.487H-822.5
			l-24.356-59.487l24.591-56.443H-788.306z"/>
		<g>
			<path fill="#FFFFFF" d="M-721.584,201.858h30.304L-708.164,359h-40.986l-64.29-157.142h34.896l45.895,109.486L-721.584,201.858z"
				/>
			<rect x="-879.645" y="201.858" fill="#FFFFFF" width="97.96" height="32.554"/>
		</g>
	</g>
</g>
<rect x="-678" y="501" width="333" height="333"/>
<g>
	<path fill="#FFFFFF" d="M-587.45,658.377V526.203h27.464v132.174H-587.45z M-510.398,560.58l-21.535,47.614l21.535,50.183h-28.846
		l-20.546-50.183l20.744-47.614H-510.398z"/>
	<g>
		<path fill="#FFFFFF" d="M-454.113,676.234h25.564l-14.243,132.563h-34.575l-54.234-132.563h29.438l38.716,92.361L-454.113,676.234
			z"/>
		<rect x="-587.45" y="676.234" fill="#FFFFFF" width="82.638" height="27.462"/>
	</g>
</g>
</svg>
