<?xml version="1.0" encoding="utf-8"?>
<!-- Generator: Adobe Illustrator 16.0.0, SVG Export Plug-In . SVG Version: 6.00 Build 0)  -->
<!DOCTYPE svg PUBLIC "-//W3C//DTD SVG 1.1//EN" "http://www.w3.org/Graphics/SVG/1.1/DTD/svg11.dtd">
<svg version="1.1" id="Layer_1" xmlns="http://www.w3.org/2000/svg" xmlns:xlink="http://www.w3.org/1999/xlink" x="0px" y="0px"
	 width="480px" height="480px" viewBox="0 0 480 480" enable-background="new 0 0 480 480" xml:space="preserve">
<path fill="#CC0A00" d="M238.907,5.438C193.625,5.438,152,18.254,115,40.44v88.795L197.221,71h41.895l-76.303,52.747L248.829,218
	h-54.893l-64.945-69.662L115,157.973V218H67V81.894C26,123.702,4.862,179.374,4.862,240.5
	c0,129.822,104.965,235.063,234.785,235.063c27.983,0,54.68-5.068,79.568-14.039L226.088,293H67v-37h138.57h0.259h56.332
	l66.246,118.561L381.354,256h33.878l-96.059,205.307C409.712,428.625,474.2,342.126,474.2,240.323
	C474.2,110.501,368.728,5.438,238.907,5.438z"/>
</svg>
